<svg xmlns="http://www.w3.org/2000/svg" xmlns:xlink="http://www.w3.org/1999/xlink" width="500" zoomAndPan="magnify" viewBox="0 0 375 374.999991" height="500" preserveAspectRatio="xMidYMid meet" version="1.0"><path fill="#f2eee4" d="M 364.628906 134.746094 C 364.167969 128.621094 363.261719 123.375 361.851562 118.679688 C 358.261719 106.597656 351.789062 95.984375 343.160156 87.992188 L 343.039062 87.871094 C 333.171875 78.957031 321.53125 73.144531 309.375 71.054688 C 304.480469 70.214844 299.71875 69.792969 295.113281 69.78125 C 294.8125 67.335938 294.445312 64.875 293.96875 62.457031 C 292.800781 56.328125 290.589844 50.003906 287.035156 42.550781 C 283.722656 35.621094 279.011719 28.808594 273.394531 22.851562 C 259.226562 7.835938 238.125 -0.0507812 218.324219 2.273438 C 213.667969 2.828125 208.65625 3.550781 203.460938 5.167969 C 199.855469 6.285156 196.199219 7.746094 191.621094 9.863281 C 185.738281 12.582031 181.015625 16.082031 176.765625 19.445312 C 169.332031 25.351562 162.625 33.238281 157.363281 42.261719 C 156.757812 43.296875 156.179688 44.335938 155.625 45.402344 C 155.414062 45.324219 155.21875 45.246094 155.019531 45.164062 C 152.914062 44.351562 150.824219 43.535156 148.730469 42.707031 C 142.179688 40.144531 135.40625 37.472656 128.472656 35.132812 C 117.027344 31.265625 107.292969 29.214844 97.820312 28.691406 C 93.058594 28.425781 88.191406 28.675781 82.007812 29.503906 C 75.679688 30.359375 70.757812 31.425781 66.089844 32.988281 C 53.75 37.105469 43.117188 43.363281 34.476562 51.621094 C 25.199219 60.472656 18.230469 72.105469 14.296875 85.269531 C 10.53125 97.867188 10.046875 111.421875 12.859375 124.453125 C 14.148438 130.421875 16.347656 135.667969 18.664062 140.96875 C 20.414062 144.976562 22.515625 148.972656 25.082031 153.167969 C 29.976562 161.191406 35.9375 169.105469 42.777344 176.679688 C 43.683594 177.691406 44.59375 178.664062 45.488281 179.585938 C 44.671875 180.886719 43.867188 182.1875 43.078125 183.503906 C 38.582031 190.933594 34.332031 198.625 30.464844 206.394531 C 25.492188 216.375 21.542969 225.316406 18.398438 233.71875 C 14.253906 244.800781 12.085938 255.597656 11.953125 265.789062 C 11.691406 285.71875 20.003906 305.695312 34.765625 320.589844 C 49.222656 335.1875 68.589844 343.429688 89.308594 343.796875 C 99.082031 343.96875 108.910156 342.351562 118.304688 339.066406 C 125.105469 348.453125 133.40625 356.394531 142.734375 362.335938 C 153.324219 369.097656 165.820312 373.105469 180.949219 374.605469 C 183.253906 374.828125 185.515625 374.949219 187.726562 374.949219 C 189.027344 374.949219 190.304688 374.90625 191.554688 374.828125 C 197.449219 374.460938 202.261719 373.683594 206.667969 372.382812 C 212.445312 370.6875 217.523438 368.386719 221.757812 365.519531 C 227.5625 361.601562 232.257812 357.039062 236.953125 350.714844 C 241.78125 344.21875 245.242188 336.25 247.097656 327.507812 C 258.015625 329.742188 269.09375 329.886719 280.089844 327.941406 C 292.390625 325.769531 304.519531 319.777344 317.164062 309.613281 C 330.238281 299.105469 340.476562 284.695312 345.972656 269.046875 C 349.960938 257.6875 350.65625 245.050781 348.117188 230.390625 C 346.5 221.054688 343.121094 211.5625 337.5 200.515625 C 336.765625 199.058594 335.988281 197.597656 335.171875 196.136719 C 337.210938 194.613281 339.226562 192.996094 341.183594 191.285156 C 346.410156 186.75 350.339844 181.597656 352.855469 178.113281 C 358.5 170.273438 362.378906 160.492188 363.761719 150.589844 C 364.445312 145.765625 365.0625 140.546875 364.628906 134.746094 Z M 364.628906 134.746094 " fill-opacity="1" fill-rule="nonzero"/><path fill="#86a279" d="M 323.292969 108.582031 C 308.929688 95.445312 284.773438 94.816406 269.738281 107.1875 C 268.039062 101.664062 267.894531 95.894531 267.855469 90.082031 C 267.804688 80.089844 266.910156 75.632812 266.644531 72.804688 C 265.5 60.300781 256.632812 39.617188 237.847656 32.738281 C 219.324219 25.957031 201.945312 36.539062 199.695312 37.960938 C 188.082031 45.296875 177.582031 60.417969 176.964844 71.464844 C 176.832031 73.871094 176.792969 76.511719 175.203125 78.328125 C 172.542969 81.335938 166.570312 79.445312 164.097656 78.707031 C 143.796875 72.621094 118.632812 59.65625 100.070312 57.550781 C 83.414062 55.660156 62.523438 61.429688 50.445312 76.472656 C 41.265625 87.898438 37.710938 104.007812 40.644531 117.589844 C 45.171875 138.441406 67.152344 163.003906 76.125 168.355469 C 77.21875 169.011719 81.613281 171.351562 81.71875 174.941406 C 81.769531 176.835938 80.613281 178.519531 79.519531 180.070312 C 67.589844 196.925781 57.378906 215.007812 49.132812 233.929688 C 44.449219 244.65625 40.328125 256.003906 40.59375 267.707031 C 41.054688 287.746094 55.605469 306.402344 74.625 312.703125 C 93.664062 319 115.910156 313.097656 130.050781 298.910156 C 131.15625 302.773438 140.695312 334.265625 169.292969 343.417969 C 172.582031 344.46875 195.949219 351.570312 209.523438 338.960938 C 216.929688 332.082031 220.207031 322.195312 220.035156 311.742188 C 219.890625 302.445312 218.152344 293.070312 219.390625 283.90625 C 221.101562 285.261719 252.320312 309.203125 282.261719 297.726562 C 295.613281 292.609375 305.347656 281.722656 306.574219 280.34375 C 306.574219 280.34375 316.085938 270.257812 319.480469 257.910156 C 328.621094 224.789062 294.878906 188.355469 292.8125 186.171875 C 306.679688 180.753906 320.992188 174.0625 329.410156 161.792969 C 340.433594 145.726562 337.671875 121.730469 323.292969 108.582031 Z M 323.292969 108.582031 " fill-opacity="1" fill-rule="nonzero"/><path fill="#f2eee4" d="M 228.324219 195.402344 C 228.21875 184.148438 228.746094 172.851562 227.402344 161.675781 C 226.164062 151.445312 222.863281 140.652344 214.640625 134.445312 C 210.785156 131.539062 206.144531 129.871094 201.484375 128.605469 C 189.265625 125.265625 176.070312 124.425781 163.980469 128.253906 C 151.902344 132.078125 141.101562 141.019531 136.90625 152.972656 C 134.40625 160.109375 134.3125 167.84375 134.417969 175.402344 C 134.5625 185.410156 135.089844 195.730469 139.445312 204.75 C 144.351562 214.914062 158.980469 226.667969 158.980469 226.667969 C 161.558594 228.984375 164.675781 230.339844 168.03125 231.128906 C 169.214844 231.601562 178.238281 232.207031 181.648438 232.179688 C 187.671875 232.140625 193.699219 232.101562 199.722656 231.71875 C 207.40625 231.246094 215.65625 229.957031 221.167969 224.578125 C 224.863281 220.976562 226.851562 215.925781 227.707031 210.839844 C 228.546875 205.75 228.363281 200.554688 228.324219 195.402344 Z M 228.324219 195.402344 " fill-opacity="1" fill-rule="nonzero"/><path fill="#fec132" d="M 221.335938 185.289062 C 221.257812 177.007812 220.5625 168.722656 219.246094 160.546875 C 218.179688 153.929688 216.550781 147.066406 212.128906 142.046875 C 207.5625 136.878906 200.527344 134.367188 193.632812 134.128906 C 186.738281 133.894531 179.9375 135.707031 173.4375 138.023438 C 161.242188 142.359375 148.652344 149.75 144.839844 162.109375 C 143.167969 167.527344 143.402344 173.339844 143.757812 178.992188 C 144.441406 189.695312 145.851562 201.136719 152.914062 209.222656 C 162.070312 219.699219 183.421875 219.515625 183.421875 219.515625 C 183.6875 219.515625 183.9375 219.515625 184.199219 219.515625 C 195.289062 219.53125 207.707031 218.332031 214.90625 209.90625 C 220.546875 203.332031 221.417969 193.96875 221.335938 185.289062 Z M 221.335938 185.289062 " fill-opacity="1" fill-rule="nonzero"/></svg>